<svg width="100" height="130" viewBox="0 0 100 130" xmlns="http://www.w3.org/2000/svg">
  <defs>
    <linearGradient id="gd" x1="0" y1="1" x2="0" y2="0">
      <stop offset="0%" stop-color="#D4A017"/><stop offset="100%" stop-color="#FFD700"/>
    </linearGradient>
    <filter id="s"><feDropShadow dx="0" dy="1.5" stdDeviation="1.5" flood-opacity="0.18"/></filter>
  </defs>
  <path d="M 28 30 Q 50 36 72 30 L 72 26 Q 50 32 28 26 Z" fill="#C8960C"/>
  <path d="M 28 26 L 30 10 L 39 20 L 50 6 L 61 20 L 70 10 L 72 26 Q 50 32 28 26 Z" fill="url(#gd)" filter="url(#s)"/>
  <circle cx="50" cy="10" r="3" fill="#E63946"/>
  <circle cx="34" cy="16" r="2.5" fill="#118AB2"/>
  <circle cx="66" cy="16" r="2.5" fill="#06D6A0"/>
  <circle cx="49" cy="9" r="1" fill="white" opacity="0.7"/>
  <circle cx="33" cy="15" r="0.8" fill="white" opacity="0.7"/>
  <circle cx="65" cy="15" r="0.8" fill="white" opacity="0.7"/>
  <path d="M 35 22 Q 50 27 65 22" stroke="#FFE566" stroke-width="1.5" fill="none" opacity="0.5"/>
</svg>