<svg width="100" height="130" viewBox="0 0 100 130" xmlns="http://www.w3.org/2000/svg">
  <defs>
    <linearGradient id="bt" x1="0" y1="0" x2="0" y2="1">
      <stop offset="0%" stop-color="#D4A03C"/><stop offset="100%" stop-color="#B8860B"/>
    </linearGradient>
    <filter id="s"><feDropShadow dx="0" dy="1.5" stdDeviation="1.5" flood-opacity="0.18"/></filter>
  </defs>
  <path d="M 28 103 L 28 118 Q 28 123 33 123 L 44 123 Q 46 123 46 120 L 44 103 Z" fill="url(#bt)" filter="url(#s)"/>
  <path d="M 28 103 L 44 103 L 44 107 L 28 107 Z" fill="#C89B3C" opacity="0.5"/>
  <path d="M 30 108 L 42 108" stroke="#A67B28" stroke-width="0.8" opacity="0.4"/>
  <path d="M 56 103 L 56 118 Q 56 123 61 123 L 72 123 Q 74 123 74 120 L 72 103 Z" fill="url(#bt)" filter="url(#s)"/>
  <path d="M 56 103 L 72 103 L 72 107 L 56 107 Z" fill="#C89B3C" opacity="0.5"/>
  <path d="M 58 108 L 70 108" stroke="#A67B28" stroke-width="0.8" opacity="0.4"/>
  <rect x="27" y="122" width="20" height="3" rx="1.5" fill="#5C3A21"/>
  <rect x="55" y="122" width="20" height="3" rx="1.5" fill="#5C3A21"/>
</svg>