<svg width="100" height="130" viewBox="0 0 100 130" xmlns="http://www.w3.org/2000/svg">
  <defs>
    <linearGradient id="hw" x1="0" y1="0" x2="0" y2="1">
      <stop offset="0%" stop-color="#B8E6F0"/><stop offset="100%" stop-color="#7BC8DB"/>
    </linearGradient>
    <filter id="s"><feDropShadow dx="0" dy="1.5" stdDeviation="1.5" flood-opacity="0.18"/></filter>
  </defs>
  <path d="M 22 60 Q 18 70 18 84 Q 18 100 25 110
           Q 40 115 50 114 Q 60 115 75 110
           Q 82 100 82 84 Q 82 70 78 60
           Q 60 54 50 55 Q 40 54 22 60 Z" fill="url(#hw)" filter="url(#s)"/>
  <path d="M 38 58 L 50 72 L 62 58" fill="#F1FAEE" opacity="0.8"/>
  <path d="M 50 72 L 50 110" stroke="#5BA9BD" stroke-width="1.2" opacity="0.4"/>
  <circle cx="32" cy="78" r="4" fill="#E63946" opacity="0.7"/>
  <circle cx="68" cy="88" r="3.5" fill="#E63946" opacity="0.7"/>
  <circle cx="38" cy="98" r="3" fill="#F4A261" opacity="0.6"/>
  <circle cx="62" cy="72" r="2.5" fill="#E63946" opacity="0.5"/>
  <circle cx="42" cy="88" r="2" fill="#F4A261" opacity="0.5"/>
  <circle cx="32" cy="78" r="1.5" fill="#FFD166" opacity="0.8"/>
  <circle cx="68" cy="88" r="1.2" fill="#FFD166" opacity="0.8"/>
  <ellipse cx="36" cy="82" rx="4" ry="1.5" fill="#2A9D8F" opacity="0.4" transform="rotate(-30 36 82)"/>
  <ellipse cx="64" cy="92" rx="3" ry="1.2" fill="#2A9D8F" opacity="0.4" transform="rotate(20 64 92)"/>
</svg>