<svg width="100" height="130" viewBox="0 0 100 130" xmlns="http://www.w3.org/2000/svg">
  <defs>
    <linearGradient id="ts" x1="0" y1="0" x2="0" y2="1">
      <stop offset="0%" stop-color="#F28BA0"/><stop offset="100%" stop-color="#C9264A"/>
    </linearGradient>
    <filter id="s"><feDropShadow dx="0" dy="1.5" stdDeviation="1.5" flood-opacity="0.18"/></filter>
  </defs>
  <path d="M 20 52 Q 50 68 80 52 L 82 58 Q 80 66 78 68
           Q 50 82 22 68 Q 20 66 18 58 Z" fill="url(#ts)" filter="url(#s)"/>
  <path d="M 30 56 Q 50 66 70 56" stroke="#D95D7A" stroke-width="1" opacity="0.3" fill="none"/>
  <path d="M 24 60 Q 50 72 76 60" stroke="#D95D7A" stroke-width="1" opacity="0.3" fill="none"/>
  <path d="M 62 66 L 70 68 L 66 105 L 58 102 Z" fill="url(#ts)" filter="url(#s)"/>
  <line x1="59" y1="102" x2="58" y2="108" stroke="#C9264A" stroke-width="1.5" stroke-linecap="round"/>
  <line x1="62" y1="103" x2="61" y2="109" stroke="#C9264A" stroke-width="1.5" stroke-linecap="round"/>
  <line x1="65" y1="104" x2="64" y2="110" stroke="#C9264A" stroke-width="1.5" stroke-linecap="round"/>
  <path d="M 32 55 Q 42 60 50 58" stroke="white" stroke-width="1.5" opacity="0.2" fill="none" stroke-linecap="round"/>
</svg>